<svg xmlns="http://www.w3.org/2000/svg" width="32" height="32" fill="currentColor" viewBox="0 0 32 32">
    <path
        d="M12.668 16a3.333 3.333 0 1 1 6.666 0 3.333 3.333 0 0 1-6.666 0Zm-1.802 0a5.135 5.135 0 1 0 10.27 0 5.135 5.135 0 0 0-10.27 0Zm9.273-5.338a1.2 1.2 0 1 0 1.2-1.2 1.2 1.2 0 0 0-1.2 1.2ZM11.96 24.14c-.975-.045-1.505-.207-1.857-.344a3.109 3.109 0 0 1-1.15-.748 3.086 3.086 0 0 1-.748-1.15c-.137-.352-.3-.882-.344-1.857-.048-1.054-.058-1.37-.058-4.04 0-2.671.01-2.987.058-4.042.045-.975.208-1.504.344-1.857.182-.467.398-.8.748-1.15.35-.35.683-.567 1.15-.748.352-.138.882-.3 1.857-.344C13.014 7.81 13.331 7.8 16 7.8c2.67 0 2.987.01 4.042.059.975.044 1.504.208 1.857.344.466.18.8.398 1.15.748.35.35.566.683.748 1.15.137.352.3.882.344 1.857.048 1.055.058 1.37.058 4.041 0 2.67-.01 2.986-.058 4.041-.044.975-.208 1.505-.344 1.857a3.1 3.1 0 0 1-.748 1.15 3.11 3.11 0 0 1-1.15.748c-.352.137-.882.3-1.857.344-1.055.048-1.371.058-4.042.058-2.67 0-2.986-.01-4.04-.058Zm-.082-18.08c-1.065.049-1.792.218-2.428.465A4.905 4.905 0 0 0 7.68 7.678 4.886 4.886 0 0 0 6.525 9.45c-.247.636-.416 1.363-.464 2.427-.05 1.066-.06 1.407-.06 4.123s.01 3.057.06 4.123c.048 1.064.217 1.791.464 2.427a4.888 4.888 0 0 0 1.154 1.771 4.916 4.916 0 0 0 1.771 1.154c.637.247 1.363.416 2.428.464 1.066.049 1.407.061 4.122.061 2.716 0 3.057-.011 4.123-.06 1.065-.049 1.792-.218 2.427-.465a4.917 4.917 0 0 0 1.772-1.154 4.899 4.899 0 0 0 1.153-1.77c.248-.637.417-1.364.465-2.428.048-1.067.06-1.407.06-4.123s-.012-3.057-.06-4.123c-.049-1.064-.217-1.792-.465-2.427a4.918 4.918 0 0 0-1.153-1.772 4.893 4.893 0 0 0-1.77-1.153c-.637-.247-1.364-.417-2.428-.464C19.058 6.012 18.717 6 16.001 6s-3.057.011-4.123.06Z" />
</svg>
