<svg id="hyva-logo" xmlns="http://www.w3.org/2000/svg" viewBox="0 0 192 192" width="192" height="192" fill="#0404ac">
    <path d="m0 96c0-87.35993 8.64009-96 96-96 87.36 0 96 8.64007 96 96 0 87.36-8.64 96-96 96-87.35991 0-96-8.64-96-96z"
        fill="#f1f4ff" />
    <path
        d="m100.943 75.4465c-9.427 0-17.8166 3.4345-24.6856 8.9083v-50.9635h-30.7677l-7.9245 23.6303h15.044v101.5874h24.7751v-51.322c3.524-5.294 9.8743-10.321 18.6038-10.321 10.5899 0 18.3349 6.171 18.3349 22.485v39.158h24.686v-39.158c0-31.6617-18.782-44.0045-38.102-44.0045z" />
    <path d="m106.808 55.1778 6.704-20.0215h23.391l-6.757 20.0215z" fill="#0cf292" />
    <path clip-rule="evenodd"
        d="m115.123 37.3913-5.215 15.5515h18.63l5.239-15.5515zm-2.877-4-7.898 23.5515h27.064l7.933-23.5515z"
        fill-rule="evenodd" />
</svg>
