<svg xmlns="http://www.w3.org/2000/svg" width="32" height="32" fill="currentColor" viewBox="0 0 32 32">
    <path
        d="M14.346 23.195c.519.993 2.038 1.833 3.652 1.833 4.804 0 8.263-4.42 8.263-9.908 0-5.26-4.294-9.198-9.819-9.198-6.873 0-10.52 4.612-10.52 9.64 0 2.337 1.242 5.242 3.231 6.168.304.143.465.08.532-.21.054-.224.322-1.301.442-1.806a.474.474 0 0 0-.111-.456c-.657-.8-1.185-2.266-1.185-3.633 0-3.513 2.66-6.914 7.191-6.914 3.915 0 6.655 2.663 6.655 6.48 0 4.308-2.176 7.294-5.01 7.294-1.564 0-2.735-1.292-2.36-2.878.452-1.895 1.319-3.938 1.319-5.305 0-1.225-.657-2.244-2.016-2.244-1.6 0-2.883 1.654-2.883 3.866 0 1.412.479 2.364.479 2.364s-1.578 6.673-1.869 7.915c-.33 1.43-.178 3.482-.035 4.733.326.125.648.25.983.353.648-1.041 1.694-2.873 2.065-4.313.196-.737.996-3.78.996-3.78Z" />
</svg>
