<svg width="170" height="88" viewBox="0 0 170 88" fill="none" xmlns="http://www.w3.org/2000/svg">
    <path d="M43.0759 43.0721L43.424 42.9985H72.3734L83.2515 53.8766H53.8807L43.0759 43.0721Z" fill="#4B5563"/>
    <path d="M33.7562 42.9985L4.38525 42.9987L15.2633 53.8768H33.7558L33.7562 42.9985Z" fill="#4B5563"/>
    <path d="M93.3601 11.7505H97.8714V25.7685H105.62V29.5661H93.3601V11.7505Z" fill="#4B5563"/>
    <path d="M113.81 29.9484C112.298 29.9484 110.973 29.6766 109.834 29.1327C108.696 28.5721 107.812 27.8076 107.183 26.839C106.571 25.8535 106.266 24.7236 106.266 23.4491C106.266 22.1748 106.571 21.0533 107.183 20.0849C107.812 19.0994 108.696 18.3348 109.834 17.7911C110.973 17.2302 112.298 16.95 113.81 16.95C115.323 16.95 116.648 17.2302 117.787 17.7911C118.925 18.3348 119.8 19.0994 120.412 20.0849C121.04 21.0533 121.355 22.1748 121.355 23.4491C121.355 24.7236 121.04 25.8535 120.412 26.839C119.8 27.8076 118.925 28.5721 117.787 29.1327C116.648 29.6766 115.323 29.9484 113.81 29.9484ZM113.81 26.4567C114.711 26.4567 115.425 26.1933 115.951 25.6667C116.495 25.1228 116.767 24.3838 116.767 23.4491C116.767 22.5146 116.495 21.784 115.951 21.2572C115.425 20.7135 114.711 20.4417 113.81 20.4417C112.91 20.4417 112.188 20.7135 111.644 21.2572C111.117 21.784 110.854 22.5146 110.854 23.4491C110.854 24.3838 111.117 25.1228 111.644 25.6667C112.188 26.1933 112.91 26.4567 113.81 26.4567Z" fill="#4B5563"/>
    <path d="M129.78 35.4282C128.965 35.4282 128.141 35.3517 127.308 35.1987C126.492 35.0459 125.788 34.8419 125.193 34.5871V31.4777C126.535 32.0553 128.064 32.3443 129.78 32.3443C131.021 32.3443 131.913 32.0893 132.456 31.5795C133.017 31.0699 133.297 30.3224 133.297 29.3367V28.5975C132.805 29.0223 132.193 29.3537 131.463 29.5916C130.749 29.8296 129.984 29.9484 129.169 29.9484C127.878 29.9484 126.739 29.6766 125.754 29.1327C124.768 28.5893 123.996 27.8244 123.434 26.839C122.89 25.8535 122.619 24.7236 122.619 23.4491C122.619 22.1578 122.89 21.0193 123.434 20.0339C123.979 19.0484 124.742 18.2923 125.728 17.7655C126.713 17.2218 127.844 16.95 129.117 16.95C130.869 16.95 132.313 17.4852 133.451 18.5556V17.3322H137.783V28.7251C137.783 30.849 137.13 32.4972 135.821 33.6696C134.529 34.8419 132.516 35.4282 129.78 35.4282ZM130.29 26.4821C130.987 26.4821 131.607 26.3037 132.151 25.9469C132.694 25.5901 133.077 25.1144 133.297 24.5196V22.3788C133.06 21.784 132.669 21.3168 132.125 20.9769C131.582 20.6201 130.97 20.4417 130.29 20.4417C129.373 20.4417 128.634 20.7135 128.073 21.2572C127.512 21.784 127.232 22.5062 127.232 23.4237C127.232 24.3582 127.512 25.1058 128.073 25.6667C128.634 26.2103 129.373 26.4821 130.29 26.4821Z" fill="#4B5563"/>
    <path d="M146.466 29.9484C144.954 29.9484 143.628 29.6766 142.489 29.1327C141.351 28.5721 140.468 27.8076 139.839 26.839C139.227 25.8535 138.921 24.7236 138.921 23.4491C138.921 22.1748 139.227 21.0533 139.839 20.0849C140.468 19.0994 141.351 18.3348 142.489 17.7911C143.628 17.2302 144.954 16.95 146.466 16.95C147.978 16.95 149.303 17.2302 150.442 17.7911C151.581 18.3348 152.455 19.0994 153.067 20.0849C153.696 21.0533 154.011 22.1748 154.011 23.4491C154.011 24.7236 153.696 25.8535 153.067 26.839C152.455 27.8076 151.581 28.5721 150.442 29.1327C149.303 29.6766 147.978 29.9484 146.466 29.9484ZM146.466 26.4567C147.367 26.4567 148.079 26.1933 148.607 25.6667C149.151 25.1228 149.422 24.3838 149.422 23.4491C149.422 22.5146 149.151 21.784 148.607 21.2572C148.079 20.7135 147.367 20.4417 146.466 20.4417C145.565 20.4417 144.843 20.7135 144.299 21.2572C143.773 21.784 143.509 22.5146 143.509 23.4491C143.509 24.3838 143.773 25.1228 144.299 25.6667C144.843 26.1933 145.565 26.4567 146.466 26.4567Z" fill="#4B5563"/>
    <path d="M93.3601 36.1233H97.8714V53.9389H93.3601V36.1233Z" fill="#4B5563"/>
    <path d="M100.155 41.705H104.488V42.9283C105.626 41.858 107.071 41.3228 108.821 41.3228C110.095 41.3228 111.226 41.5946 112.21 42.1384C113.196 42.6651 113.96 43.4211 114.505 44.4066C115.048 45.3751 115.32 46.5051 115.32 47.7964C115.32 49.0707 115.048 50.2092 114.505 51.2117C113.96 52.1971 113.196 52.962 112.21 53.5054C111.243 54.0493 110.112 54.3211 108.821 54.3211C108.005 54.3211 107.224 54.1937 106.476 53.9389C105.745 53.701 105.134 53.3696 104.641 52.9448V59.5206H100.155V41.705ZM107.649 50.8294C108.566 50.8294 109.305 50.5576 109.866 50.0138C110.426 49.4701 110.706 48.7309 110.706 47.7964C110.706 46.862 110.426 46.1313 109.866 45.6045C109.305 45.0608 108.566 44.789 107.649 44.789C106.969 44.789 106.357 44.9674 105.814 45.3242C105.27 45.6639 104.879 46.1313 104.641 46.726V48.8923C104.879 49.4871 105.27 49.9628 105.814 50.3196C106.357 50.6596 106.969 50.8294 107.649 50.8294Z" fill="#4B5563"/>
    <path d="M122.008 54.3211C121.022 54.3211 119.994 54.2191 118.924 54.0153C117.854 53.8284 117.003 53.5566 116.375 53.1998V49.912C117.071 50.3196 117.904 50.6596 118.872 50.9314C119.858 51.1863 120.759 51.3137 121.574 51.3137C122.169 51.3137 122.603 51.2711 122.874 51.1863C123.146 51.1013 123.281 50.9314 123.281 50.6764C123.281 50.4726 123.189 50.3112 123.001 50.1924C122.832 50.0564 122.509 49.9204 122.034 49.7844C121.574 49.6315 121.039 49.4701 120.427 49.3001C119.39 48.9943 118.575 48.6799 117.98 48.3571C117.386 48.0342 116.944 47.6266 116.656 47.1338C116.367 46.6411 116.222 46.0207 116.222 45.2731C116.222 43.9479 116.74 42.9623 117.777 42.3168C118.83 41.654 120.266 41.3228 122.083 41.3228C122.967 41.3228 123.893 41.4162 124.862 41.603C125.848 41.79 126.586 42.0364 127.08 42.3422V45.5791C126.569 45.2392 125.89 44.9588 125.041 44.738C124.208 44.5172 123.426 44.4066 122.695 44.4066C122.118 44.4066 121.668 44.466 121.345 44.585C121.022 44.687 120.861 44.874 120.861 45.1458C120.861 45.4007 121.022 45.5961 121.345 45.7319C121.668 45.8679 122.246 46.0379 123.078 46.2417C123.621 46.3775 123.852 46.4371 123.766 46.4201C124.853 46.7089 125.694 47.0318 126.289 47.3886C126.884 47.7456 127.3 48.1702 127.538 48.6631C127.793 49.1387 127.921 49.7504 127.921 50.498C127.921 51.6705 127.411 52.6051 126.391 53.3016C125.388 53.9813 123.927 54.3211 122.008 54.3211Z" fill="#4B5563"/>
    <path d="M134.618 54.3212C132.937 54.3212 131.671 53.8539 130.821 52.9195C129.989 51.9848 129.572 50.7531 129.572 49.2238V41.7051H134.058V48.714C134.058 50.1243 134.695 50.8295 135.969 50.8295C136.547 50.8295 137.074 50.6935 137.549 50.4217C138.026 50.1499 138.416 49.7505 138.722 49.2238V41.7051H143.207V53.9389H138.875V52.6135C138.349 53.1743 137.711 53.5991 136.963 53.8879C136.216 54.1768 135.434 54.3212 134.618 54.3212Z" fill="#4B5563"/>
    <path d="M145.505 41.705H149.659V43.0303C150.168 42.4866 150.754 42.0704 151.417 41.7814C152.08 41.4756 152.786 41.3228 153.533 41.3228C154.45 41.3228 155.182 41.4586 155.725 41.7304C156.286 42.0024 156.735 42.4101 157.075 42.9539C157.585 42.4441 158.205 42.0448 158.936 41.756C159.666 41.4672 160.406 41.3228 161.153 41.3228C162.768 41.3228 163.915 41.739 164.595 42.5715C165.275 43.3871 165.615 44.568 165.615 46.1143V53.9389H161.332V46.7515C161.332 46.0719 161.204 45.5791 160.95 45.2731C160.695 44.9674 160.27 44.8144 159.675 44.8144C158.911 44.8144 158.291 45.0864 157.815 45.6299C157.832 45.9189 157.841 46.3607 157.841 46.9554V53.9389H153.559V46.5731C153.559 45.9443 153.448 45.4941 153.227 45.2222C153.007 44.9504 152.615 44.8144 152.055 44.8144C151.188 44.8144 150.44 45.2987 149.812 46.2671V53.9389H145.505V41.705Z" fill="#4B5563"/>
    <path d="M43.4243 42.9985L43.0761 43.0723L53.8804 53.8766V83.2473H44.6339L33.7559 72.3692H43.0023V42.9983H33.7559V33.7523H43.0023V4.38135L53.8804 15.2594V33.7521L43.0023 33.7523V42.9983L43.4243 42.9985Z" fill="#4B5563"/>
    <path d="M72.3735 42.9986L83.2516 53.8767V44.6303L72.3735 33.7522V42.9986Z" fill="#4B5563"/>
    <path d="M93.9976 62.3015H100.599C102.467 62.3015 103.92 62.7433 104.957 63.627C106.01 64.5105 106.538 65.8188 106.538 67.5519C106.538 69.302 106.018 70.6105 104.983 71.4771C103.946 72.3436 102.484 72.7768 100.599 72.7768H95.9855V80.1172H93.9976V62.3015ZM100.446 71.0947C101.72 71.0947 102.723 70.8399 103.453 70.3301C104.184 69.8034 104.549 68.8774 104.549 67.5519C104.549 66.2096 104.184 65.2835 103.453 64.7739C102.723 64.2471 101.72 63.9838 100.446 63.9838H95.9855V71.0947H100.446Z" fill="#4B5563"/>
    <path d="M109.081 61.282H111.043V80.1171H109.081V61.282Z" fill="#4B5563"/>
    <path d="M119.551 80.4996C117.92 80.4996 116.662 80.0578 115.778 79.1741C114.912 78.2906 114.479 77.1097 114.479 75.6314V67.8833H116.441V75.7335C116.441 77.8744 117.554 78.9449 119.78 78.9449C120.715 78.9449 121.53 78.7409 122.228 78.3332C122.94 77.9252 123.578 77.2796 124.138 76.3961V67.8833H126.102V80.1172H124.19V78.282C123.085 79.7603 121.539 80.4996 119.551 80.4996Z" fill="#4B5563"/>
    <path d="M133.921 80.4995C133.122 80.4995 132.264 80.3805 131.347 80.1427C130.429 79.9217 129.716 79.6414 129.205 79.3014V77.6449C129.851 78.0357 130.591 78.35 131.423 78.5878C132.273 78.8258 133.088 78.9446 133.87 78.9446C134.923 78.9446 135.68 78.8002 136.138 78.5114C136.615 78.2055 136.852 77.7553 136.852 77.1607C136.852 76.7018 136.75 76.345 136.546 76.0902C136.342 75.8182 136.003 75.5804 135.526 75.3765C135.051 75.1725 134.312 74.9347 133.31 74.6629C132.324 74.3911 131.534 74.1106 130.939 73.8218C130.362 73.5158 129.919 73.1336 129.614 72.6748C129.308 72.2161 129.156 71.6299 129.156 70.9162C129.156 69.8117 129.597 68.9707 130.48 68.393C131.381 67.7982 132.57 67.501 134.048 67.501C134.846 67.501 135.595 67.5774 136.292 67.7302C137.005 67.8662 137.599 68.0616 138.076 68.3166V69.9732C137.582 69.7013 136.988 69.4889 136.292 69.3359C135.595 69.1661 134.872 69.0811 134.125 69.0811C133.139 69.0811 132.392 69.2255 131.881 69.5143C131.372 69.8033 131.118 70.2706 131.118 70.9162C131.118 71.358 131.203 71.6979 131.372 71.9357C131.56 72.1735 131.89 72.3945 132.367 72.5983C132.859 72.7853 133.641 73.0232 134.711 73.312C136.241 73.7368 137.302 74.2381 137.897 74.8159C138.508 75.3765 138.814 76.1582 138.814 77.1607C138.814 78.197 138.407 79.0126 137.591 79.6074C136.793 80.2021 135.569 80.4995 133.921 80.4995Z" fill="#4B5563"/>
</svg>
