<svg width="170" height="38" viewBox="0 0 170 38" fill="none" xmlns="http://www.w3.org/2000/svg">
    <path d="M27.2231 16.8364C26.7629 17.2994 26.4105 17.8582 26.1909 18.4729C25.9714 19.0877 25.8901 19.7433 25.9529 20.393L25.9311 20.3712C25.9957 21.136 25.8925 21.9057 25.6288 22.6266C25.3652 23.3474 24.9475 24.002 24.4048 24.5448C23.862 25.0874 23.2074 25.5053 22.4865 25.7688C21.7657 26.0324 20.996 26.1356 20.2312 26.071L20.2531 26.0929C19.3382 26.0077 18.4194 26.2068 17.6217 26.663C16.8242 27.1192 16.1867 27.8102 15.7963 28.642C15.4059 29.4738 15.2814 30.4056 15.44 31.3108C15.5987 32.2158 16.0326 33.0499 16.6826 33.6993C17.3326 34.3487 18.167 34.7818 19.0722 34.9395C19.9774 35.0974 20.9091 34.9721 21.7406 34.581C22.572 34.1897 23.2624 33.5517 23.7179 32.7537C24.1734 31.9557 24.3717 31.0367 24.2857 30.1219L24.3088 30.1437C24.2442 29.379 24.3473 28.6092 24.6109 27.8883C24.8745 27.1675 25.2924 26.5129 25.835 25.9701C26.3778 25.4274 27.0324 25.0096 27.7532 24.7461C28.4741 24.4825 29.2438 24.3793 30.0086 24.4439L29.9856 24.422C30.7328 24.4892 31.4851 24.3666 32.1725 24.0657C32.8598 23.7648 33.4601 23.2953 33.9177 22.7006C34.3752 22.106 34.6754 21.4054 34.79 20.6639C34.9048 19.9224 34.8304 19.1639 34.574 18.4587C34.3175 17.7535 33.8872 17.1245 33.3229 16.6299C32.7586 16.1354 32.0786 15.7912 31.3459 15.6295C30.6132 15.4678 29.8515 15.4935 29.1314 15.7044C28.4114 15.9155 27.7563 16.3048 27.2267 16.8364H27.2231Z" fill="#4B5563"/>
    <path d="M18.2653 23.2295L18.2422 23.2077C18.8922 23.2731 19.5487 23.1934 20.1642 22.9741C20.7796 22.7548 21.3387 22.4015 21.8008 21.9397C22.2628 21.4779 22.6167 20.9191 22.8364 20.3038C23.0561 19.6886 23.1364 19.0322 23.0714 18.3821L23.0945 18.404C23.0299 17.6391 23.1331 16.8695 23.3966 16.1486C23.6602 15.4278 24.0781 14.7731 24.6207 14.2303C25.1635 13.6877 25.8182 13.2698 26.539 13.0063C27.2599 12.7427 28.0295 12.6395 28.7944 12.7041L28.7713 12.6823C29.6863 12.7682 30.6054 12.5698 31.4034 12.1141C32.2015 11.6584 32.8395 10.9676 33.2305 10.136C33.6215 9.3044 33.7465 8.3724 33.5884 7.46714C33.4303 6.56188 32.9968 5.72744 32.3469 5.07763C31.6971 4.42783 30.8627 3.99428 29.9574 3.83616C29.0522 3.67802 28.1202 3.80298 27.2885 4.19401C26.4569 4.58502 25.7662 5.22307 25.3105 6.02111C24.8547 6.81914 24.6563 7.73831 24.7423 8.65325L24.7204 8.63018C24.7852 9.39505 24.6822 10.1648 24.4187 10.8858C24.1552 11.6067 23.7374 12.2615 23.1947 12.8043C22.6519 13.347 21.9972 13.7648 21.2762 14.0283C20.5552 14.2918 19.7855 14.3948 19.0206 14.33L19.0424 14.3531C18.3924 14.2877 17.7359 14.3674 17.1205 14.5867C16.5051 14.8059 15.946 15.1593 15.4839 15.6211C15.0217 16.0829 14.668 16.6417 14.4482 17.257C14.2285 17.8722 14.1483 18.5286 14.2132 19.1787L14.1914 19.1568C14.2557 19.9216 14.1524 20.6912 13.8888 21.412C13.625 22.1327 13.2073 22.7873 12.6646 23.33C12.1219 23.8726 11.4674 24.2903 10.7466 24.5541C10.0259 24.8177 9.25628 24.921 8.49151 24.8567L8.51337 24.8785C7.59843 24.7926 6.67925 24.991 5.88121 25.4467C5.08318 25.9024 4.44514 26.5931 4.05412 27.4248C3.6631 28.2564 3.53813 29.1884 3.69626 30.0937C3.8544 30.9989 4.28795 31.8334 4.93775 32.4831C5.58756 33.133 6.42199 33.5665 7.32726 33.7246C8.23252 33.8827 9.16452 33.7578 9.99615 33.3668C10.8278 32.9758 11.5185 32.3378 11.9742 31.5397C12.4299 30.7416 12.6283 29.8225 12.5424 28.9075L12.5654 28.9294C12.5008 28.1645 12.6041 27.3949 12.8677 26.674C13.1312 25.9532 13.549 25.2986 14.0917 24.7558C14.6345 24.2131 15.2891 23.7953 16.0099 23.5318C16.7308 23.2682 17.5004 23.1649 18.2653 23.2295Z" fill="#4B5563"/>
    <path d="M10.1271 20.7924C10.5874 20.3295 10.9397 19.7707 11.1591 19.1559C11.3784 18.5411 11.4593 17.8854 11.396 17.2357L11.4191 17.2576C11.3545 16.4926 11.4577 15.7226 11.7214 15.0016C11.9852 14.2805 12.4032 13.6258 12.9462 13.083C13.4892 12.5402 14.1441 12.1225 14.8653 11.8591C15.5864 11.5956 16.3564 11.4928 17.1214 11.5577L17.0983 11.5359C18.0129 11.6216 18.9318 11.423 19.7295 10.9674C20.5271 10.5118 21.1647 9.82116 21.5556 8.9898C21.9464 8.15843 22.0712 7.22677 21.9131 6.32185C21.755 5.41692 21.3215 4.58281 20.672 3.93324C20.0225 3.28367 19.1882 2.85027 18.2834 2.69214C17.3785 2.534 16.4467 2.65886 15.6154 3.04964C14.784 3.44042 14.0935 4.07813 13.6379 4.87579C13.1821 5.67345 12.9836 6.59226 13.0693 7.50688L13.0475 7.48502C13.1121 8.24984 13.0089 9.01954 12.7452 9.74039C12.4816 10.4612 12.0639 11.1159 11.5212 11.6586C10.9785 12.2013 10.3238 12.6191 9.60297 12.8826C8.88213 13.1463 8.11244 13.2495 7.34762 13.1849L7.36948 13.2067C6.62217 13.1397 5.87003 13.2625 5.18277 13.5635C4.49551 13.8645 3.89535 14.3342 3.43791 14.929C2.98048 15.5236 2.68057 16.2242 2.56597 16.9657C2.45138 17.7072 2.5258 18.4657 2.78234 19.1707C3.03889 19.8758 3.46926 20.5047 4.03358 20.9992C4.59789 21.4937 5.2779 21.8378 6.01057 21.9995C6.74323 22.1611 7.50487 22.1353 8.22491 21.9243C8.94493 21.7133 9.60004 21.324 10.1295 20.7924H10.1271Z" fill="#4B5563"/>
    <path d="M47.7421 8.68115H51.3485V26.2312H47.7421V8.68115Z" fill="#4B5563"/>
    <path d="M53.3909 20.2218C53.3859 18.9606 53.7553 17.7262 54.4523 16.6751C55.1493 15.624 56.1426 14.8034 57.3064 14.3173C58.4702 13.8311 59.752 13.7013 60.9896 13.9443C62.2272 14.1873 63.3648 14.792 64.2584 15.6821C65.152 16.572 65.7613 17.7073 66.0093 18.9439C66.2572 20.1805 66.1325 21.4629 65.6511 22.6286C65.1696 23.7942 64.353 24.7909 63.3047 25.492C62.2563 26.1933 61.0236 26.5677 59.7623 26.5677C58.9251 26.5772 58.0945 26.4198 57.3188 26.1045C56.5431 25.7893 55.8381 25.3226 55.2449 24.7319C54.6516 24.141 54.1821 23.4378 53.8639 22.6635C53.5455 21.8891 53.3847 21.059 53.3909 20.2218ZM62.5272 20.2218C62.5121 19.6782 62.3372 19.151 62.0242 18.7062C61.7112 18.2616 61.2741 17.9189 60.7675 17.7213C60.2607 17.5237 59.7071 17.4797 59.1757 17.5951C58.6442 17.7104 58.1584 17.9797 57.7792 18.3696C57.4001 18.7594 57.1442 19.2524 57.0437 19.787C56.9432 20.3214 57.0023 20.8736 57.214 21.3746C57.4256 21.8757 57.7802 22.3031 58.2334 22.6036C58.6867 22.9042 59.2185 23.0644 59.7623 23.0644C60.1347 23.0744 60.5052 23.007 60.8504 22.8666C61.1955 22.7263 61.5078 22.5159 61.7675 22.2489C62.0273 21.9818 62.229 21.6638 62.3596 21.3149C62.4904 20.966 62.5475 20.5939 62.5272 20.2218Z" fill="#4B5563"/>
    <path d="M80.5071 14.2111V25.6254C80.5071 29.6641 77.3573 31.3714 74.1601 31.3714C73.0344 31.4557 71.9072 31.2282 70.9021 30.7142C69.8972 30.2001 69.0531 29.4192 68.4626 28.4571L71.5396 26.6782C71.7878 27.1797 72.1833 27.5934 72.673 27.8641C73.1629 28.1346 73.7236 28.2492 74.2803 28.1924C74.6361 28.2417 74.9984 28.2104 75.3405 28.1007C75.6824 27.9911 75.9955 27.8059 76.2563 27.559C76.5171 27.312 76.719 27.0097 76.8473 26.6741C76.9754 26.3385 77.0264 25.9785 76.9966 25.6205V24.5216C76.5743 25.0383 76.0369 25.4488 75.4272 25.7202C74.8175 25.9916 74.1528 26.1163 73.4861 26.0844C71.9 26.0344 70.3956 25.3692 69.2914 24.2295C68.1871 23.0898 67.5696 21.5652 67.5696 19.9784C67.5696 18.3915 68.1871 16.8669 69.2914 15.7273C70.3956 14.5875 71.9 13.9224 73.4861 13.8723C74.1528 13.8404 74.8175 13.9651 75.4272 14.2365C76.0369 14.5079 76.5743 14.9184 76.9966 15.4351V14.2087L80.5071 14.2111ZM76.9978 19.9802C77.0221 19.399 76.8718 18.8238 76.5664 18.3288C76.261 17.8336 75.8144 17.4412 75.2841 17.2021C74.7538 16.9629 74.1642 16.888 73.5909 16.9868C73.0177 17.0857 72.4871 17.3538 72.0675 17.7568C71.6479 18.1597 71.3586 18.679 71.2365 19.2477C71.1146 19.8165 71.1656 20.4088 71.3832 20.9483C71.6007 21.4878 71.9747 21.95 72.457 22.2752C72.9393 22.6004 73.508 22.7738 74.0896 22.773C74.4686 22.7995 74.8488 22.7463 75.2059 22.6169C75.563 22.4874 75.8891 22.2845 76.163 22.0215C76.437 21.7584 76.6529 21.4408 76.7966 21.0892C76.9404 20.7377 77.009 20.3599 76.9978 19.9802Z" fill="#4B5563"/>
    <path d="M82.5495 20.2218C82.5446 18.9606 82.9138 17.7262 83.611 16.6751C84.308 15.624 85.3012 14.8034 86.465 14.3173C87.6288 13.8311 88.9106 13.7013 90.1482 13.9443C91.3858 14.1873 92.5234 14.792 93.417 15.6821C94.3106 16.572 94.92 17.7073 95.1679 18.9439C95.4159 20.1805 95.2912 21.4629 94.8097 22.6286C94.3282 23.7942 93.5116 24.7909 92.4633 25.492C91.4149 26.1933 90.1822 26.5677 88.9209 26.5677C88.0838 26.5772 87.253 26.4198 86.4774 26.1045C85.7017 25.7893 84.9967 25.3226 84.4035 24.7319C83.8102 24.141 83.3408 23.4378 83.0225 22.6635C82.7041 21.8891 82.5434 21.059 82.5495 20.2218ZM91.6858 20.2218C91.6708 19.6782 91.4958 19.151 91.1829 18.7062C90.8698 18.2616 90.4327 17.9189 89.9261 17.7213C89.4194 17.5237 88.8657 17.4797 88.3343 17.5951C87.8028 17.7104 87.3171 17.9797 86.9379 18.3696C86.5588 18.7594 86.3028 19.2524 86.2022 19.787C86.1017 20.3214 86.161 20.8736 86.3726 21.3746C86.5843 21.8757 86.9388 22.3031 87.392 22.6036C87.8453 22.9042 88.377 23.0644 88.9209 23.0644C89.2933 23.0744 89.6638 23.007 90.0089 22.8666C90.3541 22.7263 90.6664 22.5159 90.9262 22.2489C91.1859 21.9818 91.3876 21.6638 91.5183 21.3149C91.649 20.966 91.7061 20.5939 91.6858 20.2218Z" fill="#4B5563"/>
    <path d="M96.9741 10.9895C96.9741 10.5616 97.101 10.1432 97.3387 9.78738C97.5765 9.43153 97.9145 9.15417 98.3099 8.9904C98.7053 8.82662 99.1403 8.78377 99.5601 8.86726C99.9798 8.95076 100.365 9.15685 100.668 9.45947C100.971 9.76208 101.177 10.1476 101.26 10.5674C101.344 10.9871 101.301 11.4222 101.137 11.8176C100.973 12.213 100.696 12.551 100.34 12.7887C99.9843 13.0265 99.5659 13.1534 99.1379 13.1534C98.5659 13.1477 98.0187 12.9179 97.6141 12.5133C97.2096 12.1087 96.9798 11.5617 96.9741 10.9895ZM97.3383 14.211H100.946V26.2325H97.3335L97.3383 14.211Z" fill="#4B5563"/>
    <path d="M116.518 20.2217C116.56 21.0162 116.444 21.8111 116.177 22.5606C115.911 23.3102 115.499 23.9997 114.965 24.5895C114.431 25.1791 113.785 25.6576 113.066 25.9971C112.346 26.3365 111.567 26.5304 110.772 26.5675C110.104 26.604 109.436 26.4913 108.816 26.2376C108.197 25.9838 107.642 25.5955 107.191 25.1007V31.0398H103.585V14.211H107.191V15.3403C107.642 14.8458 108.197 14.4577 108.817 14.2043C109.436 13.9507 110.104 13.8382 110.772 13.8746C111.567 13.9117 112.347 14.1055 113.066 14.445C113.786 14.7845 114.431 15.2629 114.965 15.8528C115.499 16.4427 115.912 17.1324 116.178 17.8822C116.444 18.6319 116.56 19.4271 116.518 20.2217ZM112.912 20.2217C112.898 19.6591 112.718 19.1132 112.395 18.6521C112.072 18.1912 111.62 17.8356 111.097 17.6302C110.573 17.4246 110 17.3781 109.45 17.4966C108.899 17.615 108.396 17.8931 108.003 18.2959C107.611 18.699 107.345 19.2087 107.241 19.7618C107.136 20.3148 107.197 20.8863 107.416 21.4049C107.634 21.9235 108.001 22.366 108.47 22.6772C108.939 22.9883 109.489 23.1543 110.052 23.1542C110.438 23.1714 110.824 23.1067 111.184 22.9644C111.543 22.8222 111.869 22.6054 112.139 22.3286C112.409 22.0516 112.617 21.7208 112.75 21.3578C112.884 20.9947 112.939 20.6075 112.912 20.2217Z" fill="#4B5563"/>
    <path d="M127.647 22.6248C127.647 25.3898 125.244 26.5676 122.648 26.5676C121.599 26.6626 120.545 26.4409 119.624 25.9307C118.702 25.4207 117.955 24.646 117.479 23.7068L120.603 21.9278C120.729 22.3619 121.001 22.7397 121.372 22.9978C121.743 23.2559 122.192 23.3789 122.643 23.3461C123.507 23.3461 123.941 23.0814 123.941 22.6018C123.941 21.2782 118.026 21.9764 118.026 17.8175C118.026 15.1958 120.239 13.8747 122.739 13.8747C123.679 13.845 124.609 14.0679 125.433 14.5202C126.258 14.9727 126.946 15.6378 127.426 16.4466L124.349 18.1053C124.214 17.7904 123.99 17.5222 123.703 17.3341C123.416 17.146 123.081 17.0464 122.739 17.0476C122.113 17.0476 121.729 17.2905 121.729 17.7203C121.733 19.0913 127.647 18.1769 127.647 22.6248Z" fill="#4B5563"/>
    <path d="M140.821 14.2109V26.2324H137.214V25.1019C136.798 25.6007 136.27 25.9938 135.672 26.2488C135.075 26.5038 134.426 26.6134 133.778 26.5687C131.349 26.5687 129.285 24.8384 129.285 21.5902V14.2109H132.891V21.0619C132.861 21.3483 132.894 21.6378 132.987 21.9101C133.08 22.1826 133.231 22.4315 133.431 22.6395C133.63 22.8475 133.871 23.0097 134.14 23.1147C134.407 23.2197 134.695 23.2651 134.982 23.2477C136.305 23.2477 137.218 22.479 137.218 20.7717V14.2146L140.821 14.2109Z" fill="#4B5563"/>
    <path d="M161.5 18.8509V26.2313H157.894V19.1629C157.894 17.9608 157.317 17.1922 156.163 17.1922C154.961 17.1922 154.287 18.0337 154.287 19.4519V26.2313H150.682V19.1629C150.682 17.9608 150.105 17.1922 148.95 17.1922C147.748 17.1922 147.075 18.0337 147.075 19.4519V26.2313H143.469V14.2099H147.075V15.3149C147.449 14.8247 147.94 14.4359 148.502 14.1841C149.066 13.9323 149.683 13.8256 150.297 13.8735C150.914 13.8433 151.528 13.9736 152.081 14.2515C152.632 14.5294 153.102 14.9456 153.446 15.4594C153.845 14.9218 154.375 14.4944 154.984 14.217C155.594 13.9397 156.264 13.8215 156.932 13.8735C159.692 13.8747 161.5 15.8455 161.5 18.8509Z" fill="#4B5563"/>
    <path d="M164.55 14.137C166.028 14.137 167.227 12.9387 167.227 11.4607C167.227 9.98263 166.028 8.78442 164.55 8.78442C163.073 8.78442 161.874 9.98263 161.874 11.4607C161.874 12.9387 163.073 14.137 164.55 14.137Z" fill="#4B5563"/>
</svg>
