<svg width="170" height="52" viewBox="0 0 170 52" fill="none" xmlns="http://www.w3.org/2000/svg">
    <path d="M29.9175 14.7258H32.4932V32.653H40.2205V35.2288H29.9175V14.7258ZM48.244 14.7258C49.7723 14.7258 51.2663 15.179 52.537 16.0281C53.8078 16.8772 54.7983 18.0839 55.3831 19.4959C55.9679 20.908 56.1209 22.4617 55.8228 23.9605C55.5246 25.4595 54.7887 26.8363 53.7079 27.917C52.6273 28.9978 51.2504 29.7337 49.7515 30.0318C48.2526 30.33 46.6989 30.177 45.2869 29.5921C43.8749 29.0072 42.6681 28.0168 41.819 26.7461C40.9699 25.4753 40.5167 23.9814 40.5167 22.453C40.5167 21.4383 40.7166 20.4334 41.1049 19.4959C41.4932 18.5584 42.0624 17.7066 42.78 16.9891C43.4975 16.2715 44.3493 15.7022 45.2869 15.3139C46.2243 14.9257 47.2293 14.7258 48.244 14.7258ZM48.244 27.6046C49.2628 27.6046 50.2589 27.3024 51.106 26.7364C51.9532 26.1703 52.6135 25.3657 53.0033 24.4244C53.3933 23.4831 53.4953 22.4474 53.2965 21.448C53.0978 20.4487 52.6071 19.5308 51.8866 18.8104C51.1662 18.09 50.2483 17.5993 49.2491 17.4006C48.2497 17.2017 47.2139 17.3037 46.2726 17.6937C45.3313 18.0835 44.5267 18.7438 43.9606 19.591C43.3946 20.4382 43.0925 21.4342 43.0925 22.453C43.0993 23.8148 43.645 25.1186 44.6104 26.0791C45.5758 27.0396 46.8822 27.5788 48.244 27.5788V27.6046ZM43.0925 32.6788H53.3955V35.2546H43.0925V32.6788ZM76.0622 35.2546H73.4864V33.4129C71.8253 34.5756 69.8474 35.2005 67.8198 35.203C66.0908 35.2146 64.3867 34.7909 62.8645 33.9709C61.3422 33.1508 60.0509 31.9609 59.1094 30.5108C58.1679 29.0606 57.6064 27.3968 57.4768 25.6726C57.3471 23.9485 57.6535 22.2194 58.3676 20.6449C59.0818 19.0702 60.1807 17.7005 61.5631 16.6622C62.9456 15.6238 64.5672 14.95 66.2784 14.703C67.9898 14.4558 69.7357 14.6435 71.3554 15.2484C72.9751 15.8533 74.4167 16.8561 75.547 18.1644L73.6538 19.8515C72.7941 18.8903 71.7075 18.1595 70.4929 17.7259C69.2784 17.2921 67.9747 17.1693 66.7006 17.3685C65.4264 17.5677 64.2224 18.0828 63.1982 18.8664C62.1741 19.6502 61.3623 20.6777 60.8371 21.8556C60.3118 23.0334 60.0896 24.3238 60.1909 25.6095C60.2921 26.8952 60.7134 28.135 61.4165 29.2161C62.1197 30.2971 63.0822 31.1851 64.2164 31.7989C65.3505 32.4127 66.6203 32.7329 67.9099 32.7303C68.9801 32.7325 70.0383 32.5035 71.0119 32.0589C71.9854 31.6144 72.8515 30.9648 73.5508 30.1546H66.5963V27.5788H76.0879L76.0622 35.2546ZM85.541 14.7773C87.0693 14.7773 88.5632 15.2305 89.834 16.0796C91.1047 16.9287 92.0952 18.1354 92.6801 19.5475C93.2649 20.9595 93.4179 22.5132 93.1197 24.012C92.8216 25.511 92.0857 26.8879 91.0049 27.9685C89.9243 29.0493 88.5474 29.7852 87.0484 30.0833C85.5496 30.3815 83.9959 30.2285 82.5839 29.6437C81.1718 29.0587 79.9651 28.0683 79.116 26.7976C78.2669 25.5268 77.8137 24.0329 77.8137 22.5046C77.8069 21.4833 78.0026 20.4709 78.3895 19.5257C78.7764 18.5805 79.3468 17.7214 80.0677 16.9981C80.7887 16.2747 81.6459 15.7015 82.5898 15.3114C83.5337 14.9214 84.5454 14.7223 85.5667 14.7258L85.541 14.7773ZM85.541 27.6561C86.5598 27.6561 87.5559 27.3539 88.403 26.7879C89.2502 26.2218 89.9105 25.4172 90.3003 24.4759C90.6903 23.5346 90.7923 22.4989 90.5934 21.4995C90.3947 20.5002 89.904 19.5824 89.1836 18.8619C88.4632 18.1415 87.5453 17.6508 86.546 17.4521C85.5466 17.2532 84.5109 17.3552 83.5696 17.7452C82.6283 18.135 81.8236 18.7953 81.2576 19.6425C80.6916 20.4897 80.3894 21.4857 80.3894 22.5046C80.4098 23.8619 80.965 25.1563 81.9345 26.1065C82.9039 27.0566 84.2093 27.5858 85.5667 27.5788L85.541 27.6561ZM80.3894 32.7303H90.6925V35.3061H80.3894V32.7303ZM96.0114 14.7258H98.5872V35.203H96.0114V14.7258ZM102.155 14.7258H104.73C104.863 14.7117 104.997 14.7117 105.13 14.7258C106.208 14.6087 107.3 14.7202 108.332 15.0529C109.365 15.3857 110.316 15.9321 111.124 16.6568C111.932 17.3815 112.577 18.2682 113.02 19.2591C113.462 20.25 113.69 21.3229 113.69 22.408C113.69 23.493 113.462 24.5659 113.02 25.5568C112.577 26.5477 111.932 27.4344 111.124 28.1591C110.316 28.8838 109.365 29.4303 108.332 29.763C107.3 30.0957 106.208 30.2072 105.13 30.0902H104.73V35.2417H102.155V14.7258ZM104.73 17.3015V27.4887H105.13C105.857 27.5855 106.597 27.5259 107.3 27.3135C108.002 27.1013 108.651 26.7413 109.203 26.2578C109.756 25.7744 110.198 25.1785 110.501 24.51C110.804 23.8416 110.961 23.1162 110.961 22.3822C110.961 21.6482 110.804 20.9228 110.501 20.2544C110.198 19.586 109.756 18.9901 109.203 18.5066C108.651 18.023 108.002 17.6632 107.3 17.4508C106.597 17.2386 105.857 17.1789 105.13 17.2758C104.989 17.2903 104.851 17.3206 104.717 17.3659L104.73 17.3015ZM123.289 16.2068L121.383 17.7137C121.054 17.37 120.634 17.1274 120.172 17.0143C119.71 16.9013 119.225 16.9224 118.775 17.0753C118.324 17.228 117.927 17.5062 117.629 17.8771C117.331 18.248 117.146 18.6962 117.094 19.169V19.375C117.094 20.5083 117.88 21.2682 119.412 21.3712C125.311 21.7318 128.015 24.5008 128.015 28.1583V28.3902C127.863 29.8377 127.298 31.2111 126.388 32.347C125.477 33.483 124.26 34.3333 122.88 34.7974C121.501 35.2613 120.017 35.3192 118.605 34.9641C117.194 34.6092 115.914 33.8562 114.917 32.7947L116.888 31.275C117.347 31.7666 117.907 32.1524 118.529 32.406C119.152 32.6595 119.822 32.7746 120.494 32.7432C121.734 32.8086 122.952 32.3923 123.893 31.581C124.834 30.7699 125.425 29.6267 125.542 28.3902V28.2099C125.542 24.7712 122.168 24.1402 119.245 23.8568C116.54 23.5993 114.596 21.9121 114.596 19.478V19.375C114.691 18.1077 115.269 16.9255 116.211 16.0724C117.153 15.2192 118.386 14.7602 119.657 14.7902C120.33 14.7703 121 14.8918 121.623 15.1469C122.247 15.402 122.81 15.7851 123.276 16.2712L123.289 16.2068ZM138.099 32.5887C141.306 32.5887 143.843 29.1243 143.843 24.8614V14.5583H146.419V24.8614C146.419 30.528 142.71 35.1 138.151 35.1C133.592 35.1 129.883 30.528 129.883 24.8614V14.5583H132.458V24.8614C132.355 29.1887 134.892 32.653 138.086 32.653L138.099 32.5887ZM166.188 35.1644H163.612V22.4144L157.675 30.1417L151.738 22.4144V35.203H149.162V14.7258L157.662 25.9174L166.162 14.7258L166.188 35.1644Z" fill="#4B5563"/>
    <path d="M17.5537 11.6479C17.5537 9.78978 16.8157 8.00776 15.5018 6.69387C14.1879 5.37998 12.4058 4.64185 10.5477 4.64185C8.68956 4.64185 6.90755 5.37998 5.59365 6.69387C4.27976 8.00776 3.54163 9.78978 3.54163 11.6479V32.8335L9.31132 36.9676V47.0388H11.784V36.9676L17.5537 32.8335V11.6479ZM15.081 23.4964L11.784 26.7934V23.7025L15.081 20.4055V23.4964ZM6.06587 20.4055L9.36284 23.7025V26.7934L6.06587 23.4964V20.4055ZM15.081 16.9025L10.5477 21.4358L6.01435 16.7994V13.7085L10.5477 18.2418L15.081 13.7085V16.9025ZM10.5477 7.11457C11.5447 7.11898 12.5128 7.4501 13.3036 8.05721C14.0945 8.66432 14.6645 9.51393 14.9265 10.4759L10.5477 14.8418L6.1689 10.4759C6.42125 9.50436 6.98718 8.64322 7.77891 8.02615C8.57065 7.40906 9.5439 7.07052 10.5477 7.06305V7.11457ZM6.01435 31.5843V26.9479L9.31132 30.2449V33.9282L6.01435 31.5843ZM11.784 33.9411V30.2449L15.081 26.9479V31.5714L11.784 33.9411Z" fill="#4B5563"/>
</svg>
