<svg width="170" height="66" viewBox="0 0 170 66" fill="none" xmlns="http://www.w3.org/2000/svg">
    <path d="M34.6462 33.273C34.6462 30.9146 36.0543 29.2717 38.2062 29.2717C40.358 29.2717 41.766 30.9146 41.766 33.273C41.766 35.6049 40.358 37.2742 38.2062 37.2742C36.0543 37.2742 34.6462 35.6049 34.6462 33.273Z" fill="#4B5563"/>
    <path d="M52.8448 29.1658C50.7993 29.1658 49.4178 30.7556 49.4178 32.9286C49.4178 35.1279 50.8258 36.7708 52.8448 36.7708C55.0763 36.7708 56.5641 35.1014 56.5641 32.9286C56.5641 30.7821 55.0763 29.1658 52.8448 29.1658Z" fill="#4B5563"/>
    <path d="M64.7032 33.273C64.7032 30.9146 66.1113 29.2717 68.2632 29.2717C70.415 29.2717 71.823 30.9146 71.823 33.273C71.823 35.6049 70.415 37.2742 68.2632 37.2742C66.1113 37.2742 64.7032 35.6049 64.7032 33.273Z" fill="#4B5563"/>
    <path d="M86.3524 33.2996C86.3524 30.9412 87.787 29.2983 90.045 29.2983C92.3032 29.2983 93.658 30.9677 93.658 33.2996C93.658 35.6314 92.3032 37.2743 90.045 37.2743C87.787 37.2743 86.3524 35.6579 86.3524 33.2996Z" fill="#4B5563"/>
    <path fill-rule="evenodd" clip-rule="evenodd" d="M85 60.9952C130.138 60.9952 166.73 48.188 166.73 32.3894C166.73 16.5909 130.138 3.78369 85 3.78369C39.8614 3.78369 3.26923 16.5909 3.26923 32.3894C3.26923 48.188 39.8614 60.9952 85 60.9952ZM29.3949 39.8446V20.1298H26.1538V39.8446H29.3949ZM31.3786 33.273C31.3786 37.3007 34.0884 40.1626 38.2061 40.1626C42.3239 40.1626 45.0336 37.3007 45.0336 33.273C45.0336 29.2452 42.3239 26.3834 38.2061 26.3834C34.0884 26.3834 31.3786 29.2452 31.3786 33.273ZM52.287 39.5796C48.5943 39.5796 46.1236 36.8238 46.1236 33.008C46.1236 29.1658 48.6474 26.3304 52.3932 26.3304C54.3326 26.3304 55.9796 27.152 56.7766 28.5299L56.9626 26.7544H59.8317V39.1822C59.8317 43.5014 57.122 46.2837 52.8715 46.2837C49.2584 46.2837 46.6284 44.0579 46.2034 40.6395H49.471C49.6569 42.362 51.0384 43.3424 53.0573 43.3424C55.3155 43.3424 56.6704 41.9115 56.6704 39.7651V37.5393C55.8468 38.8111 54.1997 39.5796 52.287 39.5796ZM61.4356 33.273C61.4356 37.3007 64.1454 40.1626 68.2632 40.1626C72.3809 40.1626 75.0906 37.3007 75.0906 33.273C75.0906 29.2452 72.3809 26.3834 68.2632 26.3834C64.1454 26.3834 61.4356 29.2452 61.4356 33.273ZM80.5375 22.1438C80.5375 23.2302 79.6609 24.0781 78.5981 24.0781C77.509 24.0781 76.6854 23.2302 76.6854 22.1438C76.6854 21.0838 77.509 20.2358 78.5981 20.2358C79.6609 20.2358 80.5375 21.0838 80.5375 22.1438ZM80.2187 26.7544V39.8446H76.9777V26.7544H80.2187ZM83.0581 45.9127H86.2196V38.0427C87.0431 39.3941 88.823 40.189 90.789 40.189C94.6676 40.189 96.9788 37.2213 96.9256 33.1405C96.8459 29.0333 94.4816 26.3569 90.7623 26.3569C88.7699 26.3569 86.9634 27.2314 86.1664 28.7418L85.9804 26.7544H83.0581V45.9127ZM103.009 40.189C99.8739 40.189 97.8548 38.5196 97.7486 35.9228H100.697C100.697 37.0623 101.521 37.7247 102.956 37.7247C104.151 37.7247 105.134 37.2478 105.134 36.2143C105.134 35.4723 104.603 35.0749 103.752 34.8364L101.468 34.2534C98.9441 33.591 97.9611 32.1866 97.9611 30.4907C97.9611 27.9998 100.06 26.3569 102.876 26.3569C105.718 26.3569 107.658 27.9998 107.764 30.5967H104.815C104.815 29.4573 104.018 28.7683 102.796 28.7683C101.627 28.7683 100.91 29.4042 100.91 30.3052C100.91 31.1532 101.574 31.4976 102.557 31.7626L104.868 32.3191C107.02 32.849 108.189 34.1209 108.189 36.0024C108.189 38.5462 106.09 40.189 103.009 40.189ZM114.912 40.189C116.691 40.189 118.391 39.3676 119.162 38.1487L119.375 39.8446H122.403V26.7544H119.162V33.6175C119.162 35.9759 118.259 37.3007 116.134 37.3007C114.487 37.3007 113.345 36.5058 113.345 33.803V26.7544H110.103V34.9424C110.103 38.0692 111.803 40.189 114.912 40.189ZM128.505 32.3191V39.8446H125.264V26.7544H128.239L128.399 28.2384C129.169 27.0724 130.551 26.3569 132.091 26.3569C134.269 26.3569 135.704 27.3109 136.422 28.8478C137.06 27.3109 138.627 26.3569 140.619 26.3569C143.808 26.3569 145.48 28.2649 145.48 31.2857V39.8446H142.346V32.0276C142.346 30.1727 141.337 29.1923 139.769 29.1923C138.228 29.1923 137.006 30.1993 137.006 32.3456V39.8446H133.844V32.0276C133.844 30.1727 132.836 29.1923 131.294 29.1923C129.754 29.1923 128.505 30.1993 128.505 32.3191Z" fill="#4B5563"/>
</svg>
