<svg xmlns="http://www.w3.org/2000/svg" width="170" height="88" viewBox="0 0 170 88" fill="#4B5563">
    <path
        d="m43.076 43.072.348-.074h28.95L83.25 53.877h-29.37L43.076 43.072ZM33.756 42.998H4.386l10.877 10.879h18.493V42.998ZM93.36 11.75h4.511v14.018h7.749v3.798H93.36V11.751ZM113.81 29.948c-1.512 0-2.837-.271-3.976-.815-1.138-.56-2.022-1.325-2.651-2.294-.612-.985-.917-2.115-.917-3.39 0-1.274.305-2.396.917-3.364.629-.986 1.513-1.75 2.651-2.294 1.139-.56 2.464-.841 3.976-.841 1.513 0 2.838.28 3.977.841 1.138.544 2.013 1.308 2.625 2.294.628.968.943 2.09.943 3.364 0 1.275-.315 2.404-.943 3.39-.612.969-1.487 1.733-2.625 2.294-1.139.544-2.464.815-3.977.815Zm0-3.491c.901 0 1.615-.264 2.141-.79.544-.544.816-1.283.816-2.218 0-.934-.272-1.665-.816-2.192-.526-.544-1.24-.815-2.141-.815-.9 0-1.622.271-2.166.815-.527.527-.79 1.258-.79 2.192 0 .935.263 1.674.79 2.218.544.526 1.266.79 2.166.79ZM129.78 35.428c-.815 0-1.639-.076-2.472-.23-.816-.152-1.52-.356-2.115-.61v-3.11c1.342.577 2.871.866 4.587.866 1.241 0 2.133-.255 2.676-.765.561-.51.841-1.257.841-2.242v-.74c-.492.425-1.104.757-1.834.995a7.21 7.21 0 0 1-2.294.356c-1.291 0-2.43-.271-3.415-.815a5.908 5.908 0 0 1-2.32-2.294c-.544-.985-.815-2.115-.815-3.39 0-1.291.271-2.43.815-3.415a5.572 5.572 0 0 1 2.294-2.268c.985-.544 2.116-.816 3.389-.816 1.752 0 3.196.535 4.334 1.606v-1.224h4.332v11.393c0 2.124-.653 3.772-1.962 4.945-1.292 1.172-3.305 1.758-6.041 1.758Zm.51-8.946c.697 0 1.317-.178 1.861-.535a2.861 2.861 0 0 0 1.146-1.427v-2.141a2.864 2.864 0 0 0-1.172-1.402 3.268 3.268 0 0 0-1.835-.535c-.917 0-1.656.271-2.217.815-.561.527-.841 1.25-.841 2.167 0 .934.28 1.682.841 2.243.561.543 1.3.815 2.217.815ZM146.466 29.948c-1.512 0-2.838-.271-3.977-.815-1.138-.56-2.021-1.325-2.65-2.294-.612-.985-.918-2.115-.918-3.39 0-1.274.306-2.396.918-3.364.629-.986 1.512-1.75 2.65-2.294 1.139-.56 2.465-.841 3.977-.841s2.837.28 3.976.841c1.139.544 2.013 1.308 2.625 2.294.629.968.944 2.09.944 3.364 0 1.275-.315 2.404-.944 3.39-.612.969-1.486 1.733-2.625 2.294-1.139.544-2.464.815-3.976.815Zm0-3.491c.901 0 1.613-.264 2.141-.79.544-.544.815-1.283.815-2.218 0-.934-.271-1.665-.815-2.192-.528-.544-1.24-.815-2.141-.815s-1.623.271-2.167.815c-.526.527-.79 1.258-.79 2.192 0 .935.264 1.674.79 2.218.544.526 1.266.79 2.167.79ZM93.36 36.123h4.511V53.94h-4.51V36.123ZM100.155 41.705h4.333v1.223c1.138-1.07 2.583-1.605 4.333-1.605 1.274 0 2.405.272 3.389.815a5.573 5.573 0 0 1 2.295 2.269c.543.968.815 2.098.815 3.39 0 1.274-.272 2.412-.815 3.415a5.738 5.738 0 0 1-2.295 2.293c-.967.544-2.098.816-3.389.816a7.22 7.22 0 0 1-2.345-.382c-.731-.238-1.342-.57-1.835-.994v6.576h-4.486V41.705Zm7.494 9.124c.917 0 1.656-.271 2.217-.815.56-.544.84-1.283.84-2.218 0-.934-.28-1.665-.84-2.191-.561-.544-1.3-.816-2.217-.816-.68 0-1.292.178-1.835.535a2.87 2.87 0 0 0-1.173 1.402v2.166c.238.595.629 1.07 1.173 1.428.543.34 1.155.51 1.835.51ZM122.008 54.321c-.986 0-2.014-.102-3.084-.306-1.07-.187-1.921-.458-2.549-.815v-3.288c.696.408 1.529.748 2.497 1.02.986.254 1.887.382 2.702.382.595 0 1.029-.043 1.3-.128.272-.085.407-.255.407-.51a.546.546 0 0 0-.28-.484c-.169-.136-.492-.272-.967-.408-.46-.152-.995-.314-1.607-.484-1.037-.306-1.852-.62-2.447-.943-.594-.323-1.036-.73-1.324-1.223-.289-.493-.434-1.113-.434-1.86 0-1.326.518-2.312 1.555-2.957 1.053-.663 2.489-.994 4.306-.994.884 0 1.81.093 2.779.28.986.187 1.724.433 2.218.74v3.236c-.511-.34-1.19-.62-2.039-.841a9.179 9.179 0 0 0-2.346-.331c-.577 0-1.027.059-1.35.178-.323.102-.484.289-.484.56 0 .256.161.451.484.587.323.136.901.306 1.733.51.543.136.774.195.688.178 1.087.289 1.928.612 2.523.969.595.357 1.011.781 1.249 1.274.255.476.383 1.087.383 1.835 0 1.172-.51 2.107-1.53 2.804-1.003.68-2.464 1.02-4.383 1.02ZM134.618 54.321c-1.681 0-2.947-.467-3.797-1.401-.832-.935-1.249-2.167-1.249-3.696v-7.519h4.486v7.009c0 1.41.637 2.116 1.911 2.116.578 0 1.105-.136 1.58-.408.477-.272.867-.671 1.173-1.198v-7.519h4.485V53.94h-4.332v-1.325a5.101 5.101 0 0 1-1.912 1.274 6.446 6.446 0 0 1-2.345.433ZM145.505 41.705h4.154v1.325a5.278 5.278 0 0 1 1.758-1.249 4.994 4.994 0 0 1 2.116-.458c.917 0 1.649.136 2.192.407.561.272 1.01.68 1.35 1.224a5.4 5.4 0 0 1 1.861-1.198 5.986 5.986 0 0 1 2.217-.433c1.615 0 2.762.416 3.442 1.248.68.816 1.02 1.997 1.02 3.543v7.825h-4.283V46.75c0-.68-.128-1.172-.382-1.478-.255-.306-.68-.459-1.275-.459-.764 0-1.384.272-1.86.816.017.289.026.73.026 1.325v6.984h-4.282v-7.366c0-.629-.111-1.079-.332-1.35-.22-.273-.612-.409-1.172-.409-.867 0-1.615.485-2.243 1.453v7.672h-4.307V41.705Z" />
    <path
        d="m43.424 42.998-.348.074L53.88 53.877v29.37h-9.246L33.756 72.37h9.246V43h-9.246v-9.247h9.246V4.382L53.88 15.258v18.493H43.002v9.246h.422ZM72.374 42.999l10.878 10.878V44.63L72.374 33.752V43ZM93.998 62.301h6.601c1.868 0 3.321.442 4.358 1.326 1.053.883 1.581 2.192 1.581 3.925 0 1.75-.52 3.058-1.555 3.925-1.037.867-2.499 1.3-4.384 1.3h-4.614v7.34h-1.987V62.301Zm6.448 8.794c1.274 0 2.277-.255 3.007-.765.731-.527 1.096-1.453 1.096-2.778 0-1.342-.365-2.269-1.096-2.778-.73-.527-1.733-.79-3.007-.79h-4.46v7.11h4.46ZM109.081 61.282h1.962v18.835h-1.962V61.282ZM119.551 80.5c-1.631 0-2.889-.442-3.773-1.326-.866-.883-1.299-2.064-1.299-3.543v-7.748h1.962v7.85c0 2.141 1.113 3.212 3.339 3.212.935 0 1.75-.204 2.448-.612.712-.408 1.35-1.053 1.91-1.937v-8.513h1.964v12.234h-1.912v-1.835c-1.105 1.478-2.651 2.218-4.639 2.218ZM133.921 80.5c-.799 0-1.657-.12-2.574-.357-.918-.221-1.631-.502-2.142-.842v-1.656c.646.39 1.386.705 2.218.943.85.238 1.665.357 2.447.357 1.053 0 1.81-.145 2.268-.434.477-.305.714-.756.714-1.35 0-.46-.102-.816-.306-1.07-.204-.273-.543-.51-1.02-.715-.475-.204-1.214-.441-2.216-.713-.986-.272-1.776-.552-2.371-.841-.577-.306-1.02-.688-1.325-1.147-.306-.459-.458-1.045-.458-1.759 0-1.104.441-1.945 1.324-2.523.901-.595 2.09-.892 3.568-.892.798 0 1.547.076 2.244.23.713.135 1.307.33 1.784.586v1.656c-.494-.272-1.088-.484-1.784-.637a9.127 9.127 0 0 0-2.167-.255c-.986 0-1.733.144-2.244.433-.509.29-.763.757-.763 1.402 0 .442.085.782.254 1.02.188.237.518.458.995.662.492.187 1.274.425 2.344.714 1.53.425 2.591.926 3.186 1.504.611.56.917 1.342.917 2.345 0 1.036-.407 1.852-1.223 2.446-.798.595-2.022.892-3.67.892Z" />
</svg>